
<svg xmlns="http://www.w3.org/2000/svg" version="1.1" xmlns:xlink="http://www.w3.org/1999/xlink" preserveAspectRatio="none" x="0px" y="0px" width="1800px" height="1000px" viewBox="0 0 1800 1000">
<defs>
<g id="Layer0_0_FILL">
<path fill="#F4F1EE" stroke="none" d="
M 180.35 86.15
Q 210.35 85.35 241.75 79.75 283 72.4 302.25 59.85 258.55 48.95 132.15 42.1
L 14.5 37.45
Q 25.2 46 48.45 56.3 94.95 76.95 157.65 85.9 159.05 134.2 155.95 346.95 154.4 453.3 152.55 550
L 152.55 550.15
Q 152.6 555.6 157.8 559.4 163 563.25 170.3 563.2 177.6 563.15 182.75 559.3 187.9 555.45 187.8 550 184.3 490.95 181.6 403.45 176.25 228.45 180.35 86.15 Z"/>
</g>

<g id="Layer0_0_MEMBER_0_FILL">
<path fill="#8C8373" stroke="none" d="
M 304.7 59.4
L 302.5 58.85
Q 259.15 48.05 133.35 41.2
L 11.55 36.35 13.85 38.2
Q 25.1 46.95 48.35 57.3 94.85 77.9 156.65 86.8 158 135.7 154.95 346.35 153.4 451.85 151.55 550.05
L 151.55 550.2
Q 151.6 556 157.05 560.1 162.5 564.2 170.2 564.2
L 170.3 564.2
Q 174.75 564.15 178.6 562.7 182.5 561.2 185.15 558.55 188.9 554.65 188.8 549.95 185.25 489.25 182.6 401.95 177.25 227.65 181.3 87.1 211.45 86.2 242.3 80.65 283.4 73.25 302.8 60.65
L 304.7 59.4
M 179.35 85.15
L 179.35 86.1
Q 175.25 226.85 180.6 401.6 183.25 489.15 186.8 550 186.9 553.9 183.7 557.15 181.4 559.5 177.85 560.85 174.3 562.15 170.3 562.2
L 170.2 562.2
Q 163.35 562.2 158.45 558.65 153.6 555.15 153.55 550.15
L 153.55 550
Q 155.4 451.15 156.95 345.15 160.05 133.65 158.65 85.9
L 158.6 85.05 157.75 84.9
Q 102.9 77.1 59.7 59.9 33.7 49.55 17.7 38.5
L 143.9 43.75
Q 257.5 50.35 299.7 60.25 279.8 72.2 239.55 79.15 209.15 84.4 180.3 85.15
L 179.35 85.15 Z"/>
</g>

<g id="Layer0_0_MEMBER_1_FILL">
<path fill="#E6CEBD" stroke="none" d="
M 165.45 83
Q 177.65 83.7 200.3 66.65 211.6 58.15 220.5 49.45
L 159.4 44.95
Q 95.35 40.6 80.3 41.15 79.7 41.15 89.15 47.45 100.15 54.75 111.7 61.4 147.25 81.9 165.45 83 Z"/>
</g>

<g id="Layer0_0_MEMBER_2_FILL">
<path fill="#E6CEBD" stroke="none" d="
M 186.65 81.85
L 197.25 80.65
Q 210.45 78.95 222.95 76.65 263.15 69.25 282.7 58.35
L 237.95 52.3
Q 234.9 58.35 226.95 65.05 211.05 78.45 186.65 81.85 Z"/>
</g>

<g id="Layer0_0_MEMBER_3_FILL">
<path fill="#E6CEBD" stroke="none" d="
M 156.85 84.4
Q 117.6 75.8 82.85 57.15 65.45 47.85 55.9 40.25
L 31.55 39.7
Q 45.3 48.5 67.85 58.5 112.95 78.5 156.85 84.4 Z"/>
</g>

<g id="Layer0_0_MEMBER_4_FILL">
<path fill="#FFEBD1" stroke="none" d="
M 174.9 76.4
Q 179.55 74.6 189.3 61.55 194.15 55.05 198.1 48.85 180.2 71.25 173.3 64.15 171.15 61.95 170.35 57.05
L 170 52.6 169.65 65.55
Q 170.25 78.2 174.9 76.4 Z"/>
</g>

<g id="Layer0_0_MEMBER_5_FILL">
<path fill="#8C8373" stroke="none" d="
M 105.25 77.55
L 121.3 81.25 129.4 82.7 145.7 84.85 153.9 85.35 170.3 85.55 145.85 83.55 121.65 79.4 105.75 75.6
Q 90 71.5 74.5 66
L 59.2 60.2
Q 51.3 57.05 44.15 53.75 57.75 61.25 73.95 67.45 88.5 73.1 105.25 77.55 Z"/>
</g>

<g id="Layer0_0_MEMBER_6_FILL">
<path fill="#CFB8A8" stroke="none" d="
M 162.55 81.55
Q 170.25 82.8 182.1 76.3 188.05 73 192.4 69.5
L 186.1 68.65
Q 184.15 71.9 181.1 74.8 174.9 80.6 169.15 78.95 167.2 79.65 164.55 72.95
L 162.3 66.05 136.5 60.9 142.75 66.85
Q 148.3 72 150.45 73.45
L 142.1 68.4
Q 130.3 61.2 127.3 58.05 125.15 57.15 120.7 57.95
L 116.7 58.9 135 69.5
Q 154.85 80.3 162.55 81.55 Z"/>
</g>

<g id="Layer0_0_MEMBER_7_FILL">
<path fill="#FFEBD1" stroke="none" d="
M 258.15 62.75
Q 265.95 59.2 272.4 55.75
L 265.25 55.45 253.15 54.05
Q 249.4 60.6 238 67.3
L 233.2 70.25
Q 232.35 71.05 235.95 70.65 242.6 69.95 258.15 62.75 Z"/>
</g>

<g id="Layer0_0_MEMBER_8_FILL">
<path fill="#CFB8A8" stroke="none" d="
M 105.4 67.2
Q 102.25 65.05 100.25 63.05
L 98.9 61.5 121 71
Q 145.95 80.95 160.25 83.3 142.35 78.15 126.65 68.1
L 114.1 59.2 76 60.05
Q 76.45 60.05 99.2 69.15 123.9 78.5 133.6 79.55 115.5 74 105.4 67.2 Z"/>
</g>

<g id="Layer0_0_MEMBER_9_FILL">
<path fill="#CFB8A8" stroke="none" d="
M 231.95 70.95
L 217.5 75.6
Q 201.45 80.5 193.55 81.55 211.45 81.75 236.8 75.35 249.5 72.2 258.6 68.95
L 231.95 70.95 Z"/>
</g>

<g id="Layer0_0_MEMBER_10_FILL">
<path fill="#CFB8A8" stroke="none" d="
M 200.15 69.8
Q 197.5 71.75 194.15 73.75 187.6 77.7 181.5 79.85 191 78.4 199.55 74.1 203.8 71.95 206.15 70.1
L 200.15 69.8 Z"/>
</g>

<g id="Layer0_0_MEMBER_11_FILL">
<path fill="#BDA08C" stroke="none" d="
M 109.25 60.35
L 119.25 67.05
Q 131.1 74.45 140.2 77.85 128.55 72.5 118.9 64.15
L 111.55 56.9 82.85 55.2
Q 84.85 61.75 85.45 60.9
L 93.9 65.5
Q 103.55 70.35 109.8 71.8 103.9 69.65 99.25 64.5
L 95.75 59.75 109.25 60.35 Z"/>
</g>

<g id="Layer0_0_MEMBER_12_FILL">
<path fill="#BDA08C" stroke="none" d="
M 166.6 66.65
L 167.85 71.1
Q 169.5 75.7 171.45 76.4 169.65 74.05 169.8 69.1
L 170.3 64.65 143.95 63.2 151.05 69.95
Q 158.6 76.85 160.55 77.55 162.5 78.25 161.15 72.1
L 159.4 65.8 166.6 66.65 Z"/>
</g>

<g id="Layer0_0_MEMBER_13_FILL">
<path fill="#BDA08C" stroke="none" d="
M 100.7 69.9
Q 91 66.35 82.1 62.2
L 75.1 58.9 62.8 58.35
Q 77.85 64.75 98.4 71.25 139.55 84.3 167.15 85 132.7 81.6 100.7 69.9 Z"/>
</g>

<g id="Layer0_0_MEMBER_14_FILL">
<path fill="#BDA08C" stroke="none" d="
M 220.75 70.65
L 219.1 72.75
Q 217.95 74.9 220.5 75.25 223.15 75.6 239.35 72.55 255.45 69.5 254.6 69.25
L 220.75 70.65 Z"/>
</g>

<g id="Layer0_0_MEMBER_15_FILL">
<path fill="#BDA08C" stroke="none" d="
M 127.65 64
Q 136.75 69.4 139.05 69.25 141.4 69.05 133.85 63.05
L 125.85 57.1 119 58.6 127.65 64 Z"/>
</g>

<g id="Layer0_0_MEMBER_16_FILL">
<path fill="#FFEBD1" stroke="none" d="
M 174.6 83
Q 183.9 81.55 197.1 75.1 203.7 71.9 208.45 68.95
L 174.6 83 Z"/>
</g>

<g id="Layer0_0_MEMBER_17_FILL">
<path fill="#8C8373" stroke="none" d="
M 192.3 77.9
L 200.75 74.1
Q 205.2 71.95 208.95 69.8
L 209 69.75 209.45 69.15 209.3 68.4
Q 209.1 68.05 208.7 67.95 208.3 67.85 207.95 68.1
L 207.9 68.1
Q 204.35 70.45 200.05 72.75 195.95 75.05 191.9 76.95 182.35 81.45 174.6 83 182.35 81.9 192.3 77.9 Z"/>
</g>

<g id="Layer0_0_MEMBER_18_FILL">
<path fill="#8C8373" stroke="none" d="
M 246.8 72.45
Q 255.15 70.15 262.95 67.6
L 263 67.6 263.55 67.05 263.6 66.3 263.1 65.75 262.3 65.7 246.4 71 230.3 75.75
Q 221.55 78.1 213.95 79.55
L 205.65 80.85 197.25 81.25
Q 203.65 81.65 214 80.05
L 230.5 76.7 246.8 72.45 Z"/>
</g>

<g id="Layer0_0_MEMBER_19_FILL">
<path fill="#8C8373" stroke="none" d="
M 93.95 68.45
Q 88.65 66.25 83.05 63.55
L 73.1 58.3 72.5 58.05
Q 72.3 57.9 71.95 57.9 71.55 57.9 71.25 58.2 70.95 58.5 70.95 58.9 70.95 59.3 71.25 59.6 71.54296875 59.89296875 71.9 59.9
L 71.8 59.9 82.3 65.15 93.4 69.85
Q 104.3 74.05 116.35 77.25 128.2 80.4 139.85 82.3 151.65 84.3 163.7 85.3 151.65 84 139.95 81.85 128.1 79.6 116.6 76.3 104 72.6 93.95 68.45 Z"/>
</g>

<g id="Layer0_0_MEMBER_20_FILL">
<path fill="#BDA08C" stroke="none" d="
M 267.15 69.35
L 257.45 70.1
Q 255.75 70.95 222.2 80.4
L 250.05 75.8
Q 279.95 70 290.15 64.05 278.3 68.25 267.15 69.35 Z"/>
</g>

<g id="Layer0_0_MEMBER_21_FILL">
<path fill="#FFEBD1" stroke="none" d="
M 169.8 171.45
Q 171.15 119.9 171.15 104.5 171.15 96.95 165.7 91.1 164 89.25 161.95 87.8
L 160.25 86.7 161 94.45
Q 161.55 103.05 160.85 107.35 160.15 111.65 160.1 150.35 160.1 169.7 160.25 188.2
L 160.85 239.8 159.15 401.55
Q 156.85 535.15 156.85 544.9 156.85 554.2 157.05 555.5 157.55 558.85 160.25 559.25
L 169.3 560.9
Q 175.7 561.55 177.5 558.65 179.35 555.65 176.15 473.35 173.05 395.5 171.75 383.75 171.35 380.35 171.2 381.5
L 170.9 386.55
Q 170.25 397.2 168.3 397.5 165.95 397.9 165.8 316.65 165.65 235.9 167.15 232.35 168.3 229.75 169.8 171.45 Z"/>
</g>

<g id="Layer0_0_MEMBER_22_FILL">
<path fill="#CFB8A8" stroke="none" d="
M 177.5 85.85
Q 174.8 87.2 167.25 87.1
L 160.25 86.7
Q 160 86.45 160.35 122.7
L 160.7 160.25 162.6 138.15
Q 164.9 112.95 166.75 104.8 168.65 96.45 173.45 102.15 175.85 105 177.9 109.5
L 177.35 101.9
Q 176.95 92.85 177.5 85.85 Z"/>
</g>

<g id="Layer0_0_MEMBER_23_FILL">
<path fill="#BDA08C" stroke="none" d="
M 177.5 85.85
Q 172.65 86.65 164.7 84.4
L 157.7 82 159.8 89.55
Q 161.85 98.05 161.55 102.65 163.1 94.6 168.4 91.35
L 173 88.95
Q 175.85 87.5 177.5 85.85 Z"/>
</g>

<g id="Layer0_0_MEMBER_24_FILL">
<path fill="#CFB8A8" stroke="none" d="
M 159.85 199
L 159.15 224.2
Q 158.85 250 160.7 252.9 161.7 254.45 162.4 252.2
L 163.75 245.8
Q 166 234.2 169.75 231.65
L 176.6 226.95 175.35 190.35 159.85 199 Z"/>
</g>

<g id="Layer0_0_MEMBER_25_FILL">
<path fill="#BDA08C" stroke="none" d="
M 159.5 220.8
Q 160.4 222.7 161.9 223.85 166.2 227.2 170.55 221.35 171.75 219.75 173.65 204.9
L 175.35 190.35 158.55 188.2
Q 160 216.6 159.05 218.3 158.65 219 159.5 220.8 Z"/>
</g>

<g id="Layer0_0_MEMBER_26_FILL">
<path fill="#FFEBD1" stroke="none" d="
M 178.6 171.4
Q 178.45 171 178.05 171 177.6 171.05 177.5 171.45 176.2 176.75 176.5 184.5 176.65 188.4 177.05 191.2 174.9 182.9 174.9 177.35 174.9 173.9 171.1 180.35 169.15 183.6 167.25 187.5
L 163.55 173.35 160.45 186.3 158.95 168.6
Q 158.9 168.2 158.5 168.15 158.05 168.1 157.95 168.5 155.6 176 152.05 182.25 146.6 192 139.55 196.15 135.85 198.35 130.8 199.9 126.3 201.25 123.55 201.35 121.7 201.4 122.55 202.75 123.4 204.1 126.1 205.5 133.55 209.25 142 207.2 138.95 211.55 138.7 215.05 138.45 218.2 140.4 219.5 142.35 220.8 145.2 219.55 148.4 218.2 151.25 214.25 159.25 203.2 162.9 195.8
L 162.8 205
Q 163.35 214.8 166.6 217.65 172.6 222.95 173.3 208.8 173.5 204.4 173.15 198.6
L 172.75 193.65 177.05 206.35
Q 182.3 219.15 186.9 219.5 191.55 219.9 189.85 210.2
L 187.2 200.45 189.8 202.55
Q 193 204.95 196.05 206.5 205.75 211.3 209.95 205.35 200.95 199.25 194.75 193.85 183.1 183.75 178.6 171.4 Z"/>
</g>

<g id="Layer0_0_MEMBER_27_FILL">
<path fill="#8C8373" stroke="none" d="
M 160.25 186.2
L 160.25 186.3 160.4 186.5 160.65 186.35 160.65 186.3 163.2 174.8 160.55 185.1 159.15 170.8 160.25 186.2
M 163.55 173.35
L 163.7 175.2 166.95 187.6 167 187.6 167.1 187.75 167.45 187.65 168.15 185.95 172.55 178.05 167.35 186.85 164.3 175.05 163.55 173.35
M 178.2 171.05
Q 177.8 170.9 177.55 171.25
L 176.95 174.05
Q 176.5 176.9 176.35 179.75
L 176.25 185.5 176.3 186.4 175.75 184.1 174.9 176.9
Q 174.9 179.35 175.4 184.15 175.85 187.8 176.55 190.9
L 176.6 191.25 176.65 191.25 176.65 191.3
Q 176.75 191.75 177.15 191.65 177.6 191.65 177.5 191.15
L 177.5 191.1 176.65 179.8
Q 176.75 175.95 177.05 174.1
L 177.6 171.3
Q 177.75 170.95 178.2 171.05
M 163.35 195.85
L 163.1 195.45
Q 162.75 195.25 162.55 195.65 160.15 200.25 156.4 206.05
L 149.4 215.9
Q 147 218.45 144.7 219.3
L 141.95 219.65
Q 140.5 219.4 139.75 218.2 139.1 217.25 139.1 215.55 139.2 213.95 139.65 212.7 140.45 210.25 142.4 207.45
L 142.45 207.1
Q 142.35 206.65 141.95 206.75
L 141.9 206.75
Q 137.4 207.8 132.75 206.95 127.8 206.1 124.4 203.6 123.35 202.85 123.15 202.2
L 123.05 202.2 123.1 202.15 123.15 202.2 128.8 201.25
Q 133.55 200.05 137.8 197.9 142 195.85 145.45 192.15 148.3 189.25 151.1 184.5 153.3 180.75 155.25 176
L 157.65 169.35 155.1 175.9
Q 152.85 180.75 150.55 184.15 144.65 193.2 137.15 196.6 133.4 198.4 128.45 199.75
L 122.55 200.75
Q 122.35 200.9 122.1 201
L 121.7 201.55
Q 121.45 202.05 121.7 202.65 122.1 203.55 123.5 204.75 125 205.85 127.85 207 129.95 207.75 132.55 208.15
L 141.05 207.9
Q 139.45 210.35 138.8 212.45 138.25 214.3 138.25 215.55 138.25 217.55 139.05 218.7
L 140.2 219.9
Q 140.95 220.35 141.8 220.5 143.15 220.75 145 220.1 147.45 219.2 150 216.45
L 153.7 211.55 162.4 197.7
Q 162.1 203.9 162.8 209.05 163.35 213 164.55 215.5 165.4 217.3 166.65 218.25
L 168.15 219.2 170 219.4
Q 170.85 219.2 171.6 218.3
L 172.4 216.75 173.25 213.5
Q 173.7 210.6 173.8 206.85
L 173.55 197.95
Q 174.8 202.15 176.4 206.15
L 179.05 212.1
Q 180.8 215.5 182.7 217.65 184.1 219.15 185.4 219.8 186.35 220.2 187.25 220.2 188.4 220.2 189.2 219.65 189.9 219.2 190.4 218.1
L 190.9 216.35
Q 191.1 214.75 190.95 212.95 190.65 209.75 189.8 206.45
L 188.8 202.7 192 204.95
Q 195.15 206.95 197.95 208 201.7 209.35 204.6 209.05 206.25 208.9 207.85 207.95
L 209.25 206.95 210.4 205.65
Q 210.7 205.25 210.3 204.95
L 201 198.35
Q 196 194.75 192.25 191.2 188.15 187.45 184.75 182.75 181.1 177.7 179.2 172.85 180.95 177.6 184.55 182.9 187.95 187.8 191.9 191.6 195.75 195.4 200.55 199
L 209.25 205.45 207.4 207.2
Q 206 208 204.5 208.05 201.8 208.25 198.4 206.85 195.95 205.85 192.8 203.75
L 187.75 199.85 186.95 199.7
Q 186.25 199.95 186.5 200.7 188.95 208 189.45 213.05
L 189.45 216.15
Q 189.15 217.9 188.4 218.5
L 185.95 218.55
Q 184.85 218.1 183.6 216.75 181.9 214.85 180.1 211.55
L 177.4 205.75
Q 175.25 200.5 173.2 193.55 173.1 193.15 172.7 193.25 172.3 193.25 172.3 193.7 173.05 200.85 172.9 206.85 172.9 210.3 172.4 213.35
L 171.65 216.45
Q 170.85 218.4 169.8 218.55 168.75 218.85 167.2 217.6 166.05 216.7 165.3 215.15 164.15 212.85 163.6 208.95 162.8 203 163.35 195.85
M 178.6 171.55
L 178.35 173 178.3 173.15 178.25 173.2 178.25 173.25 179.2 172.85 180.1 172.5 180.1 172.45 180 172.45 179.7 172.3 178.7 171.55 178.6 171.45 178.6 171.55 Z"/>
</g>

<g id="Layer0_0_MEMBER_28_FILL">
<path fill="#FFEBD1" stroke="none" d="
M 162 194.9
Q 162.85 192 163.5 188.35 164.8 181 163.7 177.25 162.9 183.55 161.2 187.5
L 159.65 190.15 158.1 169.95
Q 156.65 177.95 151.95 186.15 142.5 202.55 126.1 203.5 134.15 206.95 139.65 206.55 142.4 206.3 143.5 205.4
L 141.3 210.9
Q 139.6 216.7 142 218.3 144.4 219.95 153.45 207.6
L 162 194.9 Z"/>
</g>

<g id="Layer0_0_MEMBER_29_FILL">
<path fill="#E6CEBD" stroke="none" d="
M 181.6 181.15
L 178.9 177.05
Q 182.65 183.9 192.65 198.25
L 180.05 190.2 181.65 193.85
Q 182.65 197.3 179.75 196.25 176.9 195.15 174.6 187.4
L 172.9 179.9 171.7 183.3
Q 169.95 187.15 167.45 189.65 164.4 192.7 164.7 201.2 165 209.8 168.6 215.75 167.15 213.2 168.75 202.75
L 170.6 192.8 173.2 191.35 178.65 203.65
Q 184.5 215.8 186.65 214.9 188.8 214 187.1 204.9
L 184.95 195.95 192.5 201.6
Q 201.45 206.95 208.45 205.7 199.85 203.9 188.5 190.3 185 186.05 181.6 181.15 Z"/>
</g>

<g id="Layer0_0_MEMBER_30_FILL">
<path fill="#CFB8A8" stroke="none" d="
M 154.8 188.15
Q 156.7 183.3 157.7 175.6 152.4 190.85 139.8 198.6 133.65 202.4 129.6 203.1 134.05 203.1 140.9 200.25 144.3 198.85 146.8 197.4
L 144.15 199.75
Q 141.55 202.25 141.9 203.1 144.8 202.55 151.55 198.8
L 157.7 195.1 153.2 196.5
Q 149 197.4 150.8 195.1 153.35 191.8 154.8 188.15 Z"/>
</g>

<g id="Layer0_0_MEMBER_31_FILL">
<path fill="#CFB8A8" stroke="none" d="
M 162.55 193.1
Q 163.45 188.6 163.8 184.65
L 164 181.6 162.4 187.25
Q 160.25 193.85 157.4 198.8 152.85 206.8 148.35 210.35 143.45 214.2 143.35 208.3
L 140.95 212.55
Q 139 217.05 141.35 218.3 144.1 219.8 152.85 209.15 161.45 198.65 162.55 193.1 Z"/>
</g>

<g id="Layer0_0_MEMBER_32_FILL">
<path fill="#F4F1EE" stroke="none" d="
M 193.25 197
L 191.8 194.25
Q 192.95 197.95 192.65 198.25 192.4 198.55 181.5 192.5
L 182.7 195.95
Q 184 199.9 184.3 202.2 185.4 209.6 176.6 197.95
L 179.55 204.25
Q 183 210.5 185.5 210.3 187.95 210.1 186.5 202.9 184.65 195.8 184.95 195.95
L 189.6 199.25
Q 194.4 202.35 197.25 202.55 195.1 200.2 193.25 197 Z"/>
</g>

<g id="Layer0_0_MEMBER_33_FILL">
<path fill="#BFF089" stroke="none" d="
M 310.5 49.15
Q 309.25 46.1 295 38.2 279.3 29.5 258.95 21.45 203.35 -0.55 160.65 0.5 120.9 1.45 73.15 11.2 31.5 19.7 8.35 29.2 -5.6 34.95 5.2 41.7 14.7 47.6 39.6 52.55 63.25 57.3 87.85 58.75 113.95 60.25 126.35 57.1 156.05 65.2 191.55 67.5 222.35 69.5 252.2 66.85 279.2 64.5 295.95 59.35 312.6 54.25 310.5 49.15 Z"/>
</g>

<g id="Layer0_0_MEMBER_34_FILL">
<path fill="#587D2A" stroke="none" d="
M 298.75 39.7
Q 292.45 36 284.75 32.3 271.8 25.85 255.7 19.65 223.45 7.35 194.8 2.7 177.8 -0.05 163.25 0
L 131.6 1.85 100.2 5.85
Q 84.5 8.25 69.05 11.55 53.25 14.85 38.3 18.9 20.2 23.85 8.15 28.7 5.5 29.85 4.1 30.7 1.6 32.25 0.65 33.85 -0.1 34.8 0 36.3 0.15 37.75 0.85 38.65 1.85 40.2 4.25 41.8 7 43.65 12.3 45.85 16.3 47.45 20.75 48.75 35.4 53.15 55.55 56.05 73.95 58.7 90.95 59.5 101.65 59.95 108.75 59.65 119.35 59.2 126.35 57.5 140.8 61.6 157.15 64.35 172.55 66.95 188.65 68.15
L 220.3 69.25 251.95 67.9 267.75 66.1 283.35 63.3
Q 291.65 61.55 298.7 59.15 303.1 57.55 306.05 56 308.1 54.9 309.4 53.65
L 310.75 52
Q 311.4 50.8 311.25 49.75
L 310.85 48.6 310.2 47.75 308.7 46.35 298.75 39.7
M 284.3 33.2
Q 292 37 298.25 40.65 301.7 42.65 304.9 44.8
L 308 47.15 309.4 48.45 309.9 49.15 310.15 49.9
Q 310.25 50.5 309.8 51.45
L 308.65 52.8 305.5 54.95
Q 302.45 56.55 298.3 57.9 291.75 60.05 283.05 61.75
L 267.5 64.2 251.8 65.9
Q 220.3 68.6 188.75 66.5 173.05 65.45 157.35 63.05 141.75 60.75 126.45 56.75
L 126.35 56.7 126.25 56.75
Q 119.6 58.3 108.7 58.6 100.85 58.8 91 58.3 74.5 57.45 55.8 54.65
L 38.35 51.5
Q 29.05 49.65 21.15 47.35 17.1 46.2 12.8 44.55 7.65 42.55 4.95 40.75 2.8 39.25 1.9 37.95 1.4 37.3 1.2 36.2 1.2 35.15 1.65 34.45 2.45 33.05 4.7 31.65 5.75 31 8.55 29.7 20.45 24.95 38.55 19.95 53.4 15.85 69.3 12.55 85.6 9.05 100.35 6.8
L 116 4.55 131.7 2.8 163.25 0.9
Q 177.6 0.75 194.65 3.55 223.45 8.35 255.35 20.6 270.15 26.25 284.3 33.2 Z"/>
</g>

<g id="Layer0_0_MEMBER_35_FILL">
<path fill="#AADE6E" stroke="none" d="
M 222.2 36.1
Q 218.25 28.75 210.4 20.15
L 203.35 13.05
Q 194 10.1 180.95 8.1 154.95 4.05 136.75 8.7 106.85 16.35 79.1 28.1 47.45 41.45 51.05 47.75 54.6 54 86.25 54.7 98.65 54.95 109.45 54.1 120.4 53.25 123.2 51.75 125.6 50.5 131.85 52.25
L 147.3 56.95
Q 174.05 64.45 203.35 62.1 234.75 59.6 222.2 36.1 Z"/>
</g>

<g id="Layer0_0_MEMBER_36_FILL">
<path fill="#A6D764" stroke="none" d="
M 185.15 7.9
L 172.2 6.45
Q 221.75 39.25 202.95 53.9 197.05 58.5 185.05 60.7
L 174.2 62 191.15 63.3 230.35 64.5
Q 289.65 64.1 305.35 49.65 270.5 26.05 217.85 13.9 201.4 10.1 185.15 7.9 Z"/>
</g>

<g id="Layer0_0_MEMBER_37_FILL">
<path fill="#AADE6E" stroke="none" d="
M 2.4 37
Q 2.4 38.75 11.6 42.45
L 19.8 45.45
Q 18.1625 44.815625 17 43.75 13.85 41 17 37.45 26.95 26 95.7 10.3 74 14 51.45 19.15 6.4 29.55 2.4 37 Z"/>
</g>

<g id="Layer0_0_MEMBER_38_FILL">
<path fill="#9FD05C" stroke="none" d="
M 255.95 62.5
L 263.6 61.95
Q 274.6 60.65 291.05 56.9 302 51.3 267.65 35.1 254.3 28.8 238.15 22.95 222.85 17.4 212.9 15.05 199.25 11.85 195.55 12.35 194.35 12.5 194.35 13
L 194.55 13.45 224.45 25.05
Q 255.15 38.15 259.15 45.35 263.1 52.55 259.95 58.25 258.35 61.1 255.95 62.5 Z"/>
</g>

<g id="Layer0_0_MEMBER_39_FILL">
<path fill="#9FD05C" stroke="none" d="
M 246.8 63.3
Q 248 62.25 248.75 60.2 250.25 56.15 247.9 51.2 240.3 35.35 196.95 16.65
L 205.85 23
Q 216 30.75 222.1 37.6 241.75 59.5 214.1 64.5
L 246.8 63.3 Z"/>
</g>

<g id="Layer0_0_MEMBER_40_FILL">
<path fill="#9FD05C" stroke="none" d="
M 77.35 27.4
Q 66.95 29.3 56.15 33 34.4 40.5 35.9 48.35 53.85 51.75 55.05 51.4 49.45 49.9 49.45 46.1 49.45 38.6 77.35 27.4 Z"/>
</g>

<g id="Layer0_0_MEMBER_41_FILL">
<path fill="#587D2A" stroke="none" d="
M 141.15 59.3
L 136.8 58.9
Q 138.8 59.75 141.15 59.3
M 132 37
L 128.3 45.55
Q 125.1 54.4 127.6 56.15 130.1 57.85 135.9 58.75
L 136.8 58.9 134.65 57.55
Q 128.75 52.7 132 37 Z"/>
</g>

<g id="Layer0_0_MEMBER_42_FILL">
<path fill="#587D2A" stroke="none" d="
M 281.75 55.75
Q 281.2 60.3 274.45 62.3
L 280.65 61.35
Q 287.05 60.25 288.3 59.5 291.15 55.25 290.5 52.25 289.9 49.15 285.55 46.4 279.25 42.45 252.3 34 282.95 46.7 281.75 55.75 Z"/>
</g>

<g id="Layer0_0_MEMBER_43_FILL">
<path fill="#BAE885" stroke="none" d="
M 300.95 51.5
Q 300.2 54.4 296.55 55.9 307.65 52.45 306.75 50.1 305.65 47.5 300.4 44.35 293.8 40.4 281.4 35.95
L 291.65 41.95
Q 301.7 48.55 300.95 51.5 Z"/>
</g>

<g id="Layer0_0_MEMBER_44_FILL">
<path fill="#C8F79B" stroke="none" d="
M 84.9 22.7
Q 90.1 20.1 96.35 17.55 116.3 9.35 138.7 4.9 120.35 8.1 99.6 12.35 58.05 20.95 45.85 26.4 39 29.5 38.3 31.1 37.7 32.5 41.75 32.5 50.9 32.5 62.15 28.4 70.4 25.4 76.5 24.8 79.5 24.5 80.9 24.8
L 84.9 22.7 Z"/>
</g>

<g id="Layer0_0_MEMBER_45_FILL">
<path fill="#9FD05C" stroke="none" d="
M 98.85 52.7
Q 110.8 52.05 116.75 50.4 123.3 48.5 124.75 44.75 127.05 38.8 99.65 45.95 89.8 48.5 76.15 48.85 60.6 49.2 59.8 45.15 59.4 43.05 58 43.4 56.7 43.7 56.2 45.4 55.65 47.25 57.1 48.65 58.9 50.45 63.35 50.7
L 75.4 52 98.85 52.7 Z"/>
</g>

<g id="Layer0_0_MEMBER_46_FILL">
<path fill="#9FD05C" stroke="none" d="
M 198.85 64.05
Q 234.9 65.95 244.75 62.3 225.65 63.65 191.6 59.65 160.25 56 154.5 53.1 149.45 50.55 145.9 45.55 144.6 43.7 141.7 37.95 140 34.7 138.8 35.15 137.25 35.75 134.3 41.95
L 133.9 43.85
Q 133.7 46.15 134.5 48.35 137.1 55.3 149.05 58.3 164.75 62.25 198.85 64.05 Z"/>
</g>

<g id="Layer0_0_MEMBER_47_FILL">
<path fill="#9FD05C" stroke="none" d="
M 16.6 30
Q 14 30.9 10.85 32.35 4.45 35.4 4.65 36.9 4.9 39.05 18.75 43.9 33.75 49.2 45.55 49.95 31.5 46.95 20.9 41.35 7.75 34.4 16.6 30 Z"/>
</g>

<g id="Layer0_0_MEMBER_48_FILL">
<path fill="#89C437" stroke="none" d="
M 259 40.45
Q 256.45 40.3 260 43 267.65 48.8 264.45 55.8 262.9 59.3 259.75 61.6
L 269.7 60.55
Q 279.7 58.7 279.95 54.7 280.3 49 266.45 42.8 261.35 40.55 259 40.45 Z"/>
</g>

<g id="Layer0_0_MEMBER_49_FILL">
<path fill="#89C437" stroke="none" d="
M 123.45 47.8
Q 126.1 44.6 122.9 44.6 121.7 44.6 119.75 45.55
L 114.45 47.85
Q 104.45 51.5 84.9 53.1
L 98.05 53.65
Q 112 53.9 116 52.6 120.7 51 123.45 47.8 Z"/>
</g>

<g id="Layer0_0_MEMBER_50_FILL">
<path fill="#89C437" stroke="none" d="
M 59.4 35.2
Q 55.35 36.5 51.4 38.9 43.45 43.7 43.95 49.4
L 50.35 50.7
Q 47.75 49.45 47.6 46.85 47.3 41.7 59.4 35.2 Z"/>
</g>

<g id="Layer0_0_MEMBER_51_FILL">
<path fill="#89C437" stroke="none" d="
M 266.65 54.95
Q 263.95 58.3 257.75 60 251.55 61.65 251.8 59.25 252 56.55 248.9 52.75 245.8 48.95 245.4 52.85 244.95 57.7 243.05 59.55 240.5 62 234.25 61.1 231.55 60.7 226.75 58.5 225 57.7 221.5 60.3 217.7 63.1 210.05 62.55
L 196 60.8
Q 190.8 60.35 188.1 58.9 184.95 57.15 181.65 56.55 177.6 55.9 173.4 57 169.1 58.15 165.95 57.65 162.4 57.05 154.25 52.7 146.55 48.6 144.95 48.6 142.75 48.6 144.45 51.95 145.95 54.9 147.1 55.75 150.45 58.4 159.1 60.25 164.4 61.4 175.5 62.8 197.3 65.6 227.65 64.7
L 258.15 62.7
Q 262.55 62 266.4 56.75 267.7 54.9 267.85 54.1 268.05 53.3 266.65 54.95 Z"/>
</g>

<g id="Layer0_0_MEMBER_52_FILL">
<path fill="#89C437" stroke="none" d="
M 291.9 49.15
Q 290.6 46.65 283.95 43.8
L 278.35 41.7
Q 287.8 45.5 290.5 50.05 292.7 53.7 290.05 56.55 294.35 56.05 299.55 53.6 302.15 52.4 303.85 51.25
L 303 49.95
Q 301.7 48.45 299.35 47.25 301.1 49.2 297.25 50.6 293.45 51.95 291.9 49.15 Z"/>
</g>

<g id="Layer0_0_MEMBER_53_FILL">
<path fill="#AADE6E" stroke="none" d="
M 17.95 35.95
L 17.15 34 16.35 35.65
Q 15.75 37.5 16.75 38.75 18.85 41.5 27.55 44.6
L 35.85 47.15
Q 36.8 45.05 39.2 42.5 42.8 38.7 47.7 36.5 30.2 42.7 22.05 39.3 19.25 38.15 17.95 35.95 Z"/>
</g>

<g id="Layer0_0_MEMBER_54_FILL">
<path fill="#B1E671" stroke="none" d="
M 199.15 49.05
Q 203.35 44.25 197.7 34.4 194.8 29.3 187.85 23.4 181.2 17.75 173.6 13.6 165.6 9.3 159.9 8.55 153.55 7.7 151.85 11.65 148.95 19.05 148.1 27.35 146.45 44 156.65 48.75 165.95 53.05 173.7 51.75
L 179.65 50.65 186.55 51.1
Q 195.35 53.4 199.15 49.05 Z"/>
</g>

<g id="Layer0_0_MEMBER_55_FILL">
<path fill="#B9F076" stroke="none" d="
M 123.55 37.55
Q 125.3 36.4 129.6 30.9 133.3 26.15 137.1 24.8 139.2 24.05 140.9 27.3
L 144.85 35.35
Q 152.35 47.95 170.2 49.15 154.25 37.2 157.45 23 159.05 15.95 163.8 11.25 159.15 9.95 151.05 10.35 134.95 11.2 118 19.65 102.5 27.4 81.8 34.25 64.95 39.8 64.15 40.75 61.95 43.3 66.5 44.85 71.8 46.65 82.9 44.75
L 107.6 41.3
Q 120.7 39.45 123.55 37.55 Z"/>
</g>

<g id="Layer0_0_MEMBER_56_FILL">
<path fill="#C8F79B" stroke="none" d="
M 159.45 3.7
Q 143.25 2.95 125 6.85
L 110 10.85 80.9 24.8 99.2 18.3
Q 118.05 11.8 120.75 12.05 123.2 12.25 119.85 16.3 116.75 19.95 118 19.65 119.6 19.25 132.6 12.7 147.5 5.85 159.45 3.7 Z"/>
</g>

<g id="Layer0_0_MEMBER_57_FILL">
<path fill="#B9F076" stroke="none" d="
M 211.65 21.2
L 226 27.05
Q 219.5 23.95 211.65 21.2
M 255.05 51.9
L 257.2 52.05
Q 259.8 51.35 256.3 45.15 252.8 38.95 231.9 29.45
L 226 27.05
Q 239.2 33.35 247 41.3 252.8 47.25 253.9 51.5
L 255.05 51.9 Z"/>
</g>

<g id="Layer0_0_MEMBER_58_FILL">
<path fill="#C8F79B" stroke="none" d="
M 91.75 41.55
Q 107.45 40.55 112 37.6 118.85 33.15 123.1 27.85 128 21.8 121.1 23 112 24.65 88.65 34 65.05 43.45 77 41.95
L 91.75 41.55 Z"/>
</g>

<g id="Layer0_0_MEMBER_59_FILL">
<path fill="#C5FF82" stroke="none" d="
M 132.35 36.75
L 131.55 40.45
Q 130.85 44.85 131.3 48.4 132.7 59.85 144.9 58.7 143.8 57.75 140.75 56.25 138 54.85 136.6 53.5 132.1 49.05 132.35 36.75 Z"/>
</g>

<g id="Layer0_0_MEMBER_60_FILL">
<path fill="#D9F7B3" stroke="none" d="
M 145.1 5.7
Q 127.35 7 106.7 10.4 65.65 17.25 47.4 28 40 32.35 58.9 26.75
L 85.3 18.85 145.1 5.7 Z"/>
</g>

<g id="Layer0_0_MEMBER_61_FILL">
<path fill="#C8F79B" stroke="none" d="
M 181.3 4.1
L 173.4 3.7 201.95 9
Q 234.7 16.1 255.9 24.8 233.75 11.85 201.35 6.5 191.25 4.8 181.3 4.1 Z"/>
</g>

<g id="Layer0_0_MEMBER_62_FILL">
<path fill="#D9F7B3" stroke="none" d="
M 291.8 39.75
L 299.35 43.65
Q 306.65 48.05 305.55 50.5 304.75 52.3 298.35 55.5
L 301.95 54.85
Q 305.9 53.85 307.45 52.4 312.45 47.7 291.8 39.75 Z"/>
</g>

<g id="Layer0_0_MEMBER_63_FILL">
<path fill="#D9F7B3" stroke="none" d="
M 177.2 5.1
Q 176.05 2.8 169 2.1 163.65 1.55 146.6 2.75
L 128.35 4.5
Q 113.35 8.55 116.4 10.25 119.2 11.85 129.55 10.05
L 146.85 7.4
Q 156.8 6.35 167.4 6.85 178.35 7.4 177.2 5.1 Z"/>
</g>

<g id="Layer0_0_MEMBER_64_FILL">
<path fill="#D9F7B3" stroke="none" d="
M 82.5 10.85
L 82.15 11.4
Q 81.85 12 82.25 12.45 83.55 13.85 91.25 12.85 99 11.85 102.7 9.25 104.5 7.95 104.8 6.85
L 82.5 10.85 Z"/>
</g>

<g id="Layer0_0_MEMBER_65_FILL">
<path fill="#C5FF82" stroke="none" d="
M 23.1 32.7
Q 15.4 35.6 12.7 39.2 11.35 41 11.55 42.25
L 24.3 46.45
Q 23.5 44.65 24.2 42.15 25.6 37.2 33.05 33.85 34.35 33.25 34.7 32.35 35 31.45 34 30.95 31.3 29.65 23.1 32.7 Z"/>
</g>

<g id="Layer0_0_MEMBER_66_FILL">
<path fill="#D9F7B3" stroke="none" d="
M 118.8 55.7
Q 119.4 53.5 118.55 51.5 116.8 47.5 109.6 48.5 98.6 50.05 90.9 50.2
L 78.5 50.1
Q 73.05 50.1 73.45 52.3 73.65 53.4 74.95 54.5 90.15 56.95 106 56.6
L 118.8 55.7 Z"/>
</g>

<g id="Layer0_0_MEMBER_67_FILL">
<path fill="#C8F79B" stroke="none" d="
M 172.1 25.65
Q 179.65 24.7 184.95 21.2 189.4 18.25 181.45 17.25
L 172.6 16.85
Q 155.85 14.05 150.25 14.05 146.6 14.05 151.75 18.2 155.5 21.15 161.05 24.4 164.7 26.55 172.1 25.65 Z"/>
</g>

<g id="Layer0_0_MEMBER_68_FILL">
<path fill="#D9F7B3" stroke="none" d="
M 163.65 21.6
Q 168.15 21.85 171.8 20.4 175.65 18.8 171.5 17.5
L 154.85 15.65
Q 152.4 15.4 156.2 18.4 160 21.4 163.65 21.6 Z"/>
</g>

<g id="Layer0_0_MEMBER_69_FILL">
<path fill="#C8F79B" stroke="none" d="
M 226.8 33.6
Q 221.5 32.7 216.4 34.75 211.15 36.85 214.05 39.15 215.5 40.3 220.4 40.1 225.05 39.9 229.1 38.75 233.45 37.55 233.45 36.25 233.45 34.7 226.8 33.6 Z"/>
</g>

<g id="Layer0_0_MEMBER_70_FILL">
<path fill="#C8F79B" stroke="none" d="
M 203.6 36.1
Q 206.25 27.1 204.9 25.2 203.5 23.25 198.45 22.9 193.8 22.55 191.75 23.6 188.65 25.15 181.25 32.75 172.4 41.85 173.4 45.95 174.6 50.7 185.8 50.4 196.6 50.1 199.3 46.75 201.1 44.5 203.6 36.1 Z"/>
</g>

<g id="Layer0_0_MEMBER_71_FILL">
<path fill="#D9F7B3" stroke="none" d="
M 182.1 38.55
Q 180.75 39.7 179.65 41.15 177.4 43.95 178.7 45.25 180.4 46.9 182.95 46.95 185.8 46.95 188.55 44.75 191.65 42.25 189.3 39.2 186.85 36.15 182.1 38.55 Z"/>
</g>

<g id="Layer0_0_MEMBER_72_FILL">
<path fill="#B9F076" stroke="none" d="
M 203.6 36.1
Q 206.25 27.1 204.9 25.2 203.95 23.9 201.05 23.25
L 195.6 22.9
Q 202.05 25.35 197.7 35.45 195.35 41 191.45 45 187.8 48.7 183.5 50.35
L 193.15 49.5
Q 197.95 48.4 199.3 46.75 201.1 44.5 203.6 36.1 Z"/>
</g>

<g id="Layer0_0_MEMBER_73_FILL">
<path fill="#D9F7B3" stroke="none" d="
M 217.25 35.85
Q 219.4 37.45 223.95 37.75 228.8 38.05 229.75 35.85 230.65 33.6 223.1 34 215.3 34.4 217.25 35.85 Z"/>
</g>

<g id="Layer0_0_MEMBER_74_FILL">
<path fill="#D9F7B3" stroke="none" d="
M 247.95 19.25
L 248.05 20.75
Q 248.6 22.55 250.7 24.15 254.3 26.9 258.85 25.95 261.15 25.45 262.7 24.4
L 247.95 19.25 Z"/>
</g>

<g id="Layer0_0_MEMBER_75_FILL">
<path fill="#B9F076" stroke="none" d="
M 275.8 47.9
Q 274.3 46.6 272.95 49.05 270.35 53.95 269.35 55.15 265.15 60.1 255.5 63.35
L 272.35 61.4 274.3 60.55
Q 276.55 59.35 277.85 57.95 282.1 53.4 275.8 47.9 Z"/>
</g>

<g id="Layer0_0_MEMBER_76_FILL">
<path fill="#D9F7B3" stroke="none" d="
M 261 62
L 256.9 63 272.4 61.4 270.05 61.1
Q 268.15 60.25 270.5 57.7 272.05 56.05 272.05 54.65 272.05 53.25 268.35 57.4 265.65 60.45 261 62 Z"/>
</g>

<g id="Layer0_0_MEMBER_77_FILL">
<path fill="#D9F7B3" stroke="none" d="
M 278.6 55.8
Q 279.55 52.95 277.3 50.2 275.2 47.65 274.6 48.2 272.35 50.05 273.4 52.45 274.8 55.5 274.6 56.1 274 57.85 272.05 59.25 270.75 60.25 271 60.3 273.05 60.75 275.25 59.65 277.75 58.35 278.6 55.8 Z"/>
</g>
</defs>

<g transform="matrix( 3.55029296875, -0.0561370849609375, 0.0533294677734375, 3.7366485595703125, 115.5,40.45) ">
<use xlink:href="#Layer0_0_FILL"/>
</g>

<g transform="matrix( 3.55023193359375, -0.05609130859375, 0.05328369140625, 3.7365875244140625, 115.5,40.45) ">
<use xlink:href="#Layer0_0_MEMBER_0_FILL"/>
</g>

<g transform="matrix( 3.55023193359375, -0.05609130859375, 0.05328369140625, 3.7365875244140625, 115.5,40.45) ">
<use xlink:href="#Layer0_0_MEMBER_1_FILL"/>
</g>

<g transform="matrix( 3.55023193359375, -0.05609130859375, 0.05328369140625, 3.7365875244140625, 115.5,40.45) ">
<use xlink:href="#Layer0_0_MEMBER_2_FILL"/>
</g>

<g transform="matrix( 3.55023193359375, -0.05609130859375, 0.05328369140625, 3.7365875244140625, 115.5,40.45) ">
<use xlink:href="#Layer0_0_MEMBER_3_FILL"/>
</g>

<g transform="matrix( 3.55023193359375, -0.05609130859375, 0.05328369140625, 3.7365875244140625, 115.5,40.45) ">
<use xlink:href="#Layer0_0_MEMBER_4_FILL"/>
</g>

<g transform="matrix( 3.55023193359375, -0.05609130859375, 0.05328369140625, 3.7365875244140625, 115.5,40.45) ">
<use xlink:href="#Layer0_0_MEMBER_5_FILL"/>
</g>

<g transform="matrix( 3.55023193359375, -0.05609130859375, 0.05328369140625, 3.7365875244140625, 115.5,40.45) ">
<use xlink:href="#Layer0_0_MEMBER_6_FILL"/>
</g>

<g transform="matrix( 3.55023193359375, -0.05609130859375, 0.05328369140625, 3.7365875244140625, 115.5,40.45) ">
<use xlink:href="#Layer0_0_MEMBER_7_FILL"/>
</g>

<g transform="matrix( 3.55023193359375, -0.05609130859375, 0.05328369140625, 3.7365875244140625, 115.5,40.45) ">
<use xlink:href="#Layer0_0_MEMBER_8_FILL"/>
</g>

<g transform="matrix( 3.55023193359375, -0.05609130859375, 0.05328369140625, 3.7365875244140625, 115.5,40.45) ">
<use xlink:href="#Layer0_0_MEMBER_9_FILL"/>
</g>

<g transform="matrix( 3.55023193359375, -0.05609130859375, 0.05328369140625, 3.7365875244140625, 115.5,40.45) ">
<use xlink:href="#Layer0_0_MEMBER_10_FILL"/>
</g>

<g transform="matrix( 3.55023193359375, -0.05609130859375, 0.05328369140625, 3.7365875244140625, 115.5,40.45) ">
<use xlink:href="#Layer0_0_MEMBER_11_FILL"/>
</g>

<g transform="matrix( 3.55023193359375, -0.05609130859375, 0.05328369140625, 3.7365875244140625, 115.5,40.45) ">
<use xlink:href="#Layer0_0_MEMBER_12_FILL"/>
</g>

<g transform="matrix( 3.55023193359375, -0.05609130859375, 0.05328369140625, 3.7365875244140625, 115.5,40.45) ">
<use xlink:href="#Layer0_0_MEMBER_13_FILL"/>
</g>

<g transform="matrix( 3.55023193359375, -0.05609130859375, 0.05328369140625, 3.7365875244140625, 115.5,40.45) ">
<use xlink:href="#Layer0_0_MEMBER_14_FILL"/>
</g>

<g transform="matrix( 3.55023193359375, -0.05609130859375, 0.05328369140625, 3.7365875244140625, 115.5,40.45) ">
<use xlink:href="#Layer0_0_MEMBER_15_FILL"/>
</g>

<g transform="matrix( 3.55023193359375, -0.05609130859375, 0.05328369140625, 3.7365875244140625, 115.5,40.45) ">
<use xlink:href="#Layer0_0_MEMBER_16_FILL"/>
</g>

<g transform="matrix( 3.55023193359375, -0.05609130859375, 0.05328369140625, 3.7365875244140625, 115.5,40.45) ">
<use xlink:href="#Layer0_0_MEMBER_17_FILL"/>
</g>

<g transform="matrix( 3.55023193359375, -0.05609130859375, 0.05328369140625, 3.7365875244140625, 115.5,40.45) ">
<use xlink:href="#Layer0_0_MEMBER_18_FILL"/>
</g>

<g transform="matrix( 3.55023193359375, -0.05609130859375, 0.05328369140625, 3.7365875244140625, 115.5,40.45) ">
<use xlink:href="#Layer0_0_MEMBER_19_FILL"/>
</g>

<g transform="matrix( 3.55023193359375, -0.05609130859375, 0.05328369140625, 3.7365875244140625, 115.5,40.45) ">
<use xlink:href="#Layer0_0_MEMBER_20_FILL"/>
</g>

<g transform="matrix( 3.55023193359375, -0.05609130859375, 0.05328369140625, 3.7365875244140625, 115.5,40.45) ">
<use xlink:href="#Layer0_0_MEMBER_21_FILL"/>
</g>

<g transform="matrix( 3.55023193359375, -0.05609130859375, 0.05328369140625, 3.7365875244140625, 115.5,40.45) ">
<use xlink:href="#Layer0_0_MEMBER_22_FILL"/>
</g>

<g transform="matrix( 3.55023193359375, -0.05609130859375, 0.05328369140625, 3.7365875244140625, 115.5,40.45) ">
<use xlink:href="#Layer0_0_MEMBER_23_FILL"/>
</g>

<g transform="matrix( 3.55023193359375, -0.05609130859375, 0.05328369140625, 3.7365875244140625, 115.5,40.45) ">
<use xlink:href="#Layer0_0_MEMBER_24_FILL"/>
</g>

<g transform="matrix( 3.55023193359375, -0.05609130859375, 0.05328369140625, 3.7365875244140625, 115.5,40.45) ">
<use xlink:href="#Layer0_0_MEMBER_25_FILL"/>
</g>

<g transform="matrix( 3.55023193359375, -0.05609130859375, 0.05328369140625, 3.7365875244140625, 115.5,40.45) ">
<use xlink:href="#Layer0_0_MEMBER_26_FILL"/>
</g>

<g transform="matrix( 3.55023193359375, -0.05609130859375, 0.05328369140625, 3.7365875244140625, 115.5,40.45) ">
<use xlink:href="#Layer0_0_MEMBER_27_FILL"/>
</g>

<g transform="matrix( 3.55023193359375, -0.05609130859375, 0.05328369140625, 3.7365875244140625, 115.5,40.45) ">
<use xlink:href="#Layer0_0_MEMBER_28_FILL"/>
</g>

<g transform="matrix( 3.55023193359375, -0.05609130859375, 0.05328369140625, 3.7365875244140625, 115.5,40.45) ">
<use xlink:href="#Layer0_0_MEMBER_29_FILL"/>
</g>

<g transform="matrix( 3.55023193359375, -0.05609130859375, 0.05328369140625, 3.7365875244140625, 115.5,40.45) ">
<use xlink:href="#Layer0_0_MEMBER_30_FILL"/>
</g>

<g transform="matrix( 3.55023193359375, -0.05609130859375, 0.05328369140625, 3.7365875244140625, 115.5,40.45) ">
<use xlink:href="#Layer0_0_MEMBER_31_FILL"/>
</g>

<g transform="matrix( 3.55023193359375, -0.05609130859375, 0.05328369140625, 3.7365875244140625, 115.5,40.45) ">
<use xlink:href="#Layer0_0_MEMBER_32_FILL"/>
</g>

<g transform="matrix( 3.55023193359375, -0.05609130859375, 0.05328369140625, 3.7365875244140625, 115.5,40.45) ">
<use xlink:href="#Layer0_0_MEMBER_33_FILL"/>
</g>

<g transform="matrix( 3.55023193359375, -0.05609130859375, 0.05328369140625, 3.7365875244140625, 115.5,40.45) ">
<use xlink:href="#Layer0_0_MEMBER_34_FILL"/>
</g>

<g transform="matrix( 3.55023193359375, -0.05609130859375, 0.05328369140625, 3.7365875244140625, 115.5,40.45) ">
<use xlink:href="#Layer0_0_MEMBER_35_FILL"/>
</g>

<g transform="matrix( 3.55023193359375, -0.05609130859375, 0.05328369140625, 3.7365875244140625, 115.5,40.45) ">
<use xlink:href="#Layer0_0_MEMBER_36_FILL"/>
</g>

<g transform="matrix( 3.55023193359375, -0.05609130859375, 0.05328369140625, 3.7365875244140625, 115.5,40.45) ">
<use xlink:href="#Layer0_0_MEMBER_37_FILL"/>
</g>

<g transform="matrix( 3.55023193359375, -0.05609130859375, 0.05328369140625, 3.7365875244140625, 115.5,40.45) ">
<use xlink:href="#Layer0_0_MEMBER_38_FILL"/>
</g>

<g transform="matrix( 3.55023193359375, -0.05609130859375, 0.05328369140625, 3.7365875244140625, 115.5,40.45) ">
<use xlink:href="#Layer0_0_MEMBER_39_FILL"/>
</g>

<g transform="matrix( 3.55023193359375, -0.05609130859375, 0.05328369140625, 3.7365875244140625, 115.5,40.45) ">
<use xlink:href="#Layer0_0_MEMBER_40_FILL"/>
</g>

<g transform="matrix( 3.55023193359375, -0.05609130859375, 0.05328369140625, 3.7365875244140625, 115.5,40.45) ">
<use xlink:href="#Layer0_0_MEMBER_41_FILL"/>
</g>

<g transform="matrix( 3.55023193359375, -0.05609130859375, 0.05328369140625, 3.7365875244140625, 115.5,40.45) ">
<use xlink:href="#Layer0_0_MEMBER_42_FILL"/>
</g>

<g transform="matrix( 3.55023193359375, -0.05609130859375, 0.05328369140625, 3.7365875244140625, 115.5,40.45) ">
<use xlink:href="#Layer0_0_MEMBER_43_FILL"/>
</g>

<g transform="matrix( 3.55023193359375, -0.05609130859375, 0.05328369140625, 3.7365875244140625, 115.5,40.45) ">
<use xlink:href="#Layer0_0_MEMBER_44_FILL"/>
</g>

<g transform="matrix( 3.55023193359375, -0.05609130859375, 0.05328369140625, 3.7365875244140625, 115.5,40.45) ">
<use xlink:href="#Layer0_0_MEMBER_45_FILL"/>
</g>

<g transform="matrix( 3.55023193359375, -0.05609130859375, 0.05328369140625, 3.7365875244140625, 115.5,40.45) ">
<use xlink:href="#Layer0_0_MEMBER_46_FILL"/>
</g>

<g transform="matrix( 3.55023193359375, -0.05609130859375, 0.05328369140625, 3.7365875244140625, 115.5,40.45) ">
<use xlink:href="#Layer0_0_MEMBER_47_FILL"/>
</g>

<g transform="matrix( 3.55023193359375, -0.05609130859375, 0.05328369140625, 3.7365875244140625, 115.5,40.45) ">
<use xlink:href="#Layer0_0_MEMBER_48_FILL"/>
</g>

<g transform="matrix( 3.55023193359375, -0.05609130859375, 0.05328369140625, 3.7365875244140625, 115.5,40.45) ">
<use xlink:href="#Layer0_0_MEMBER_49_FILL"/>
</g>

<g transform="matrix( 3.55023193359375, -0.05609130859375, 0.05328369140625, 3.7365875244140625, 115.5,40.45) ">
<use xlink:href="#Layer0_0_MEMBER_50_FILL"/>
</g>

<g transform="matrix( 3.55023193359375, -0.05609130859375, 0.05328369140625, 3.7365875244140625, 115.5,40.45) ">
<use xlink:href="#Layer0_0_MEMBER_51_FILL"/>
</g>

<g transform="matrix( 3.55023193359375, -0.05609130859375, 0.05328369140625, 3.7365875244140625, 115.5,40.45) ">
<use xlink:href="#Layer0_0_MEMBER_52_FILL"/>
</g>

<g transform="matrix( 3.55023193359375, -0.05609130859375, 0.05328369140625, 3.7365875244140625, 115.5,40.45) ">
<use xlink:href="#Layer0_0_MEMBER_53_FILL"/>
</g>

<g transform="matrix( 3.55023193359375, -0.05609130859375, 0.05328369140625, 3.7365875244140625, 115.5,40.45) ">
<use xlink:href="#Layer0_0_MEMBER_54_FILL"/>
</g>

<g transform="matrix( 3.55023193359375, -0.05609130859375, 0.05328369140625, 3.7365875244140625, 115.5,40.45) ">
<use xlink:href="#Layer0_0_MEMBER_55_FILL"/>
</g>

<g transform="matrix( 3.55023193359375, -0.05609130859375, 0.05328369140625, 3.7365875244140625, 115.5,40.45) ">
<use xlink:href="#Layer0_0_MEMBER_56_FILL"/>
</g>

<g transform="matrix( 3.55023193359375, -0.05609130859375, 0.05328369140625, 3.7365875244140625, 115.5,40.45) ">
<use xlink:href="#Layer0_0_MEMBER_57_FILL"/>
</g>

<g transform="matrix( 3.55023193359375, -0.05609130859375, 0.05328369140625, 3.7365875244140625, 115.5,40.45) ">
<use xlink:href="#Layer0_0_MEMBER_58_FILL"/>
</g>

<g transform="matrix( 3.55023193359375, -0.05609130859375, 0.05328369140625, 3.7365875244140625, 115.5,40.45) ">
<use xlink:href="#Layer0_0_MEMBER_59_FILL"/>
</g>

<g transform="matrix( 3.55023193359375, -0.05609130859375, 0.05328369140625, 3.7365875244140625, 115.5,40.45) ">
<use xlink:href="#Layer0_0_MEMBER_60_FILL"/>
</g>

<g transform="matrix( 3.55023193359375, -0.05609130859375, 0.05328369140625, 3.7365875244140625, 115.5,40.45) ">
<use xlink:href="#Layer0_0_MEMBER_61_FILL"/>
</g>

<g transform="matrix( 3.55023193359375, -0.05609130859375, 0.05328369140625, 3.7365875244140625, 115.5,40.45) ">
<use xlink:href="#Layer0_0_MEMBER_62_FILL"/>
</g>

<g transform="matrix( 3.55023193359375, -0.05609130859375, 0.05328369140625, 3.7365875244140625, 115.5,40.45) ">
<use xlink:href="#Layer0_0_MEMBER_63_FILL"/>
</g>

<g transform="matrix( 3.55023193359375, -0.05609130859375, 0.05328369140625, 3.7365875244140625, 115.5,40.45) ">
<use xlink:href="#Layer0_0_MEMBER_64_FILL"/>
</g>

<g transform="matrix( 3.55023193359375, -0.05609130859375, 0.05328369140625, 3.7365875244140625, 115.5,40.45) ">
<use xlink:href="#Layer0_0_MEMBER_65_FILL"/>
</g>

<g transform="matrix( 3.55023193359375, -0.05609130859375, 0.05328369140625, 3.7365875244140625, 115.5,40.45) ">
<use xlink:href="#Layer0_0_MEMBER_66_FILL"/>
</g>

<g transform="matrix( 3.55023193359375, -0.05609130859375, 0.05328369140625, 3.7365875244140625, 115.5,40.45) ">
<use xlink:href="#Layer0_0_MEMBER_67_FILL"/>
</g>

<g transform="matrix( 3.55023193359375, -0.05609130859375, 0.05328369140625, 3.7365875244140625, 115.5,40.45) ">
<use xlink:href="#Layer0_0_MEMBER_68_FILL"/>
</g>

<g transform="matrix( 3.55023193359375, -0.05609130859375, 0.05328369140625, 3.7365875244140625, 115.5,40.45) ">
<use xlink:href="#Layer0_0_MEMBER_69_FILL"/>
</g>

<g transform="matrix( 3.55023193359375, -0.05609130859375, 0.05328369140625, 3.7365875244140625, 115.5,40.45) ">
<use xlink:href="#Layer0_0_MEMBER_70_FILL"/>
</g>

<g transform="matrix( 3.55023193359375, -0.05609130859375, 0.05328369140625, 3.7365875244140625, 115.5,40.45) ">
<use xlink:href="#Layer0_0_MEMBER_71_FILL"/>
</g>

<g transform="matrix( 3.55023193359375, -0.05609130859375, 0.05328369140625, 3.7365875244140625, 115.5,40.45) ">
<use xlink:href="#Layer0_0_MEMBER_72_FILL"/>
</g>

<g transform="matrix( 3.55023193359375, -0.05609130859375, 0.05328369140625, 3.7365875244140625, 115.5,40.45) ">
<use xlink:href="#Layer0_0_MEMBER_73_FILL"/>
</g>

<g transform="matrix( 3.55023193359375, -0.05609130859375, 0.05328369140625, 3.7365875244140625, 115.5,40.45) ">
<use xlink:href="#Layer0_0_MEMBER_74_FILL"/>
</g>

<g transform="matrix( 3.55023193359375, -0.05609130859375, 0.05328369140625, 3.7365875244140625, 115.5,40.45) ">
<use xlink:href="#Layer0_0_MEMBER_75_FILL"/>
</g>

<g transform="matrix( 3.55023193359375, -0.05609130859375, 0.05328369140625, 3.7365875244140625, 115.5,40.45) ">
<use xlink:href="#Layer0_0_MEMBER_76_FILL"/>
</g>

<g transform="matrix( 3.55023193359375, -0.05609130859375, 0.05328369140625, 3.7365875244140625, 115.5,40.45) ">
<use xlink:href="#Layer0_0_MEMBER_77_FILL"/>
</g>
</svg>
